# Blender 4.5.4 LTS
# www.blender.org
mtllib groundPlane.mtl
o Plane
v -10.000000 0.000001 10.000000
v 10.000000 0.000001 10.000000
v -10.000000 -0.000001 -10.000000
v 10.000000 -0.000001 -10.000000
v -10.000000 0.250001 10.000000
v 10.000000 0.250001 10.000000
v -10.000000 0.249999 -10.000000
v 10.000000 0.249999 -10.000000
vn -0.0000 -1.0000 -0.0000
vn -0.0000 1.0000 -0.0000
vn 1.0000 -0.0000 -0.0000
vn -1.0000 -0.0000 -0.0000
vn -0.0000 -0.0000 -1.0000
vn -0.0000 -0.0000 1.0000
vt 0.397559 0.526822
vt 0.550819 0.526822
vt 0.550819 0.605599
vt 0.397559 0.605599
vt 0.003812 0.999832
vt 0.003812 0.003090
vt 0.976557 0.003090
vt 0.976557 0.999832
vt 1.000875 0.000000
vt 1.000875 0.500000
vt 0.988716 0.500000
vt 0.988716 0.000000
vt 0.988716 1.000000
vt 0.988716 0.500000
vt 1.000875 1.000000
vt 0.976557 0.500000
vt 0.976557 0.000000
vt 0.988716 0.000000
vt 0.976557 1.000000
vt 0.988716 0.500000
vt 0.988716 1.000000
s 1
usemtl groundPlaneMat
f 1/1/1 3/2/1 4/3/1 2/4/1
f 5/5/2 6/6/2 8/7/2 7/8/2
f 2/9/3 4/10/3 8/11/3 6/12/3
f 3/13/4 1/14/4 5/10/4 7/15/4
f 4/16/5 3/17/5 7/18/5 8/11/5
f 1/19/6 2/16/6 6/20/6 5/21/6
